<svg id="SvgjsSvg1001" width="288" height="288" xmlns="http://www.w3.org/2000/svg" version="1.1" xmlns:xlink="http://www.w3.org/1999/xlink" xmlns:svgjs="http://svgjs.com/svgjs"><defs id="SvgjsDefs1002"></defs><g id="SvgjsG1008" transform="matrix(1,0,0,1,0,0)"><svg xmlns="http://www.w3.org/2000/svg" width="288" height="288" version="1.0" viewBox="0 0 835 484"><path d="M730 4793 c-81 -30 -114 -57 -331 -274 -126 -127 -242 -249 -257-271 -24 -37 -27 -51 -27 -128 0 -79 3 -90 29 -130 16 -24 896 -911 1955
-1972 1734 -1734 1933 -1930 1985 -1954 68 -31 134 -30 206 4 34 16 498 474
1982 1959 1768 1769 1939 1943 1963 1996 32 73 32 121 0 194 -21 48 -63 95
-258 290 -256 258 -304 293 -399 293 -105 0 -29 72 -1776 -1673 l-1623 -1622
-1619 1621 c-1744 1746 -1669 1675 -1771 1673 -24 0 -51 -3 -59 -6z" transform="matrix(.1 0 0 -.1 0 484)" fill="#e9007f" class="color000 svgShape"></path></svg></g></svg>