<?xml version="1.0" standalone="no"?>
<!DOCTYPE svg PUBLIC "-//W3C//DTD SVG 20010904//EN"
 "http://www.w3.org/TR/2001/REC-SVG-20010904/DTD/svg10.dtd">
<svg version="1.0" xmlns="http://www.w3.org/2000/svg"
 width="528.000000pt" height="528.000000pt" viewBox="0 0 528.000000 528.000000"
 preserveAspectRatio="xMidYMid meet">

<g transform="translate(0.000000,528.000000) scale(0.100000,-0.100000)"
fill="#000000" stroke="none">
<path d="M3196 4285 c-80 -28 -129 -98 -131 -190 l-2 -59 -474 -173 c-261 -95
-484 -176 -497 -179 -18 -5 -30 2 -59 36 -44 51 -85 70 -153 70 -175 0 -264
-206 -143 -332 l26 -27 -279 -430 c-153 -237 -284 -438 -291 -447 -10 -14 -17
-14 -48 -4 -124 41 -250 -46 -262 -179 -4 -37 1 -57 24 -101 51 -97 165 -135
260 -88 l31 16 346 -435 346 -434 -27 -41 c-21 -32 -28 -56 -31 -107 -3 -59 0
-71 27 -113 38 -59 96 -91 166 -91 116 0 199 85 198 203 l-1 55 497 182 496
181 34 -39 c44 -52 98 -79 157 -79 168 0 263 200 154 324 -17 18 -30 36 -30
39 0 3 129 205 286 447 253 390 289 441 308 436 98 -28 171 -11 230 54 140
155 -24 390 -220 315 -25 -10 -49 -13 -54 -9 -4 5 -159 200 -345 433 -278 350
-336 427 -326 440 41 58 53 96 49 152 -6 78 -42 133 -111 165 -59 27 -95 29
-151 9z m127 -19 c125 -45 158 -207 61 -298 -132 -123 -345 8 -293 181 21 70
98 129 169 130 14 0 42 -6 63 -13z m-221 -285 c47 -71 166 -103 239 -65 17 8
34 14 38 12 8 -3 668 -828 685 -856 5 -8 2 -20 -7 -30 -65 -74 -61 -199 8
-272 l23 -25 -289 -446 -290 -446 -37 13 c-20 7 -53 13 -73 14 l-36 0 -120
448 -120 447 26 14 c142 75 147 282 9 354 -83 42 -162 31 -232 -33 l-41 -37
-410 218 c-268 143 -409 223 -406 231 3 7 6 40 7 73 l2 60 494 181 c271 100
496 181 500 180 4 0 17 -16 30 -35z m-1144 -225 c92 -48 126 -150 81 -243 -21
-44 -75 -84 -132 -97 -80 -19 -189 60 -202 146 -12 76 23 148 89 189 37 23
125 25 164 5z m515 -486 c365 -193 406 -217 399 -235 -4 -11 -7 -42 -7 -70 0
-104 76 -185 183 -193 l57 -4 118 -442 c65 -242 117 -447 117 -453 0 -7 -7
-13 -15 -13 -8 0 -33 -18 -54 -39 l-39 -39 -411 217 -411 216 8 30 c31 130
-48 244 -177 253 l-58 4 -120 450 -120 449 26 14 c14 7 39 27 56 44 16 17 32
30 35 29 4 -2 189 -100 413 -218z m-574 122 c24 3 26 -2 145 -446 93 -348 117
-451 107 -454 -27 -9 -94 -77 -108 -109 -21 -50 -16 -123 10 -174 61 -116 213
-140 309 -48 l40 38 408 -216 408 -217 -5 -75 c-3 -42 -6 -76 -7 -77 0 0 -203
-74 -451 -164 -247 -89 -471 -171 -497 -181 l-48 -19 -15 31 c-9 16 -37 43
-63 60 -53 34 -128 39 -189 14 -20 -9 -40 -12 -43 -8 -21 24 -667 840 -673
850 -5 7 4 30 19 53 50 75 43 177 -17 244 l-28 33 245 379 c136 208 266 409
289 446 l44 66 47 -14 c26 -8 59 -13 73 -12z m1228 -257 c48 -20 71 -41 94
-87 61 -119 -27 -258 -162 -258 -43 0 -104 26 -131 57 -22 24 -48 86 -48 115
0 130 131 221 247 173z m1160 -64 c109 -50 132 -198 45 -285 -56 -56 -127 -70
-197 -37 -70 32 -105 86 -105 161 0 135 132 217 257 161z m-3134 -547 c96 -49
131 -145 88 -240 -61 -135 -255 -136 -320 -2 -25 52 -27 95 -6 145 21 50 42
72 90 94 50 23 106 24 148 3z m1181 -77 c89 -69 97 -188 17 -268 -111 -111
-288 -46 -299 111 -5 73 23 130 83 166 56 35 146 31 199 -9z m1141 -606 c75
-34 125 -122 110 -194 -29 -139 -197 -194 -298 -99 -41 39 -57 74 -57 127 0
82 43 144 117 170 51 19 81 18 128 -4z m-1365 -510 c103 -54 125 -192 46 -279
-33 -37 -76 -55 -134 -55 -43 0 -61 6 -94 29 -60 42 -80 85 -76 160 4 71 34
120 90 147 45 22 125 22 168 -2z"/>
<path d="M3242 4138 c-25 -25 -11 -88 19 -88 27 0 43 38 30 73 -11 29 -29 35
-49 15z m32 -24 c8 -21 -3 -56 -15 -49 -12 8 -12 65 0 65 5 0 12 -7 15 -16z"/>
<path d="M1863 3615 c-28 -42 -28 -45 -4 -45 11 0 22 -6 24 -12 7 -18 29 12
22 30 -3 8 -5 25 -5 38 0 33 -11 30 -37 -11z"/>
<path d="M3055 3012 c-5 -4 -10 -26 -10 -50 0 -31 4 -42 15 -42 12 0 15 9 12
38 -5 58 -6 62 -17 54z"/>
<path d="M4180 2946 c0 -9 7 -12 20 -9 19 5 19 4 5 -36 -18 -53 -2 -54 19 -1
22 55 21 60 -14 60 -19 0 -30 -5 -30 -14z"/>
<path d="M1057 2404 c-12 -13 -7 -24 8 -18 17 7 21 -11 4 -21 -6 -5 -4 -12 8
-21 17 -13 17 -14 -4 -20 -28 -8 -21 -24 6 -17 25 6 31 22 22 64 -6 32 -28 48
-44 33z"/>
<path d="M2216 2331 c-10 -11 -16 -31 -14 -48 2 -22 8 -28 28 -28 30 0 39 34
15 58 -14 14 -14 17 2 26 15 9 16 10 2 11 -9 0 -24 -9 -33 -19z m24 -57 c0 -8
-4 -14 -10 -14 -5 0 -10 9 -10 21 0 11 5 17 10 14 6 -3 10 -13 10 -21z"/>
<path d="M3390 1711 c-14 -26 -13 -28 11 -34 24 -7 20 -33 -5 -31 -9 1 -16 -2
-16 -7 0 -17 39 -9 49 10 7 13 6 24 -3 37 -12 16 -12 20 3 31 14 11 14 12 -6
13 -12 0 -27 -9 -33 -19z"/>
<path d="M1999 1214 c-12 -15 -11 -16 9 -10 30 10 30 -19 0 -51 l-21 -23 31 0
c17 0 34 5 38 11 4 8 0 9 -15 4 -20 -6 -20 -6 -4 23 27 47 -5 86 -38 46z"/>
</g>
</svg>
